<svg width="65" height="75" viewBox="0 0 65 75" fill="none" xmlns="http://www.w3.org/2000/svg">
<path fill-rule="evenodd" clip-rule="evenodd" d="M15 43V32.5V32H15.007C15.2717 22.5662 23.0023 15 32.5 15C42.165 15 50 22.835 50 32.5C50 41.9977 42.4338 49.7283 33 49.993V50H32.5H22V65H32V64.9962C32.0739 64.9973 32.1478 64.9982 32.2218 64.9988C32.3145 64.9996 32.4072 65 32.5 65C50.4493 65 65 50.4493 65 32.5C65 14.5507 50.4493 0 32.5 0C14.7177 0 0.270996 14.2813 0.00378418 32H0V32.5V43H15Z" fill="white"/>
<rect y="50" width="15" height="25" fill="#FF0000"/>
</svg>
